<?xml version="1.0" standalone="no"?>
<!DOCTYPE svg PUBLIC "-//W3C//DTD SVG 20010904//EN"
 "http://www.w3.org/TR/2001/REC-SVG-20010904/DTD/svg10.dtd">
<svg version="1.0" xmlns="http://www.w3.org/2000/svg"
 width="70.000000pt" height="70.000000pt" viewBox="0 0 70.000000 70.000000"
 preserveAspectRatio="xMidYMid meet">
<metadata>
Created by potrace 1.14, written by Peter Selinger 2001-2017
</metadata>
<g transform="translate(0.000000,70.000000) scale(0.100000,-0.100000)"
fill="#000000" stroke="none">
<path d="M225 660 c-4 -6 -16 -8 -28 -5 -15 4 -18 3 -9 -3 11 -7 7 -11 -15
-17 -15 -5 -32 -9 -38 -9 -5 -1 -9 -13 -9 -29 1 -15 -3 -27 -8 -27 -5 0 -6 -5
-3 -11 4 -5 -1 -20 -12 -31 -10 -12 -12 -18 -5 -14 10 6 10 1 -1 -26 -8 -18
-12 -39 -9 -47 3 -8 0 -11 -6 -7 -6 4 -8 -2 -5 -14 3 -11 0 -27 -7 -35 -11
-13 -10 -14 6 -9 12 5 9 -1 -9 -15 -15 -13 -25 -26 -22 -31 3 -5 1 -11 -4 -15
-6 -3 -8 -12 -5 -19 3 -8 0 -17 -7 -22 -8 -4 -10 -3 -5 4 5 8 2 10 -8 6 -14
-5 -14 -8 -1 -21 20 -19 19 -24 -2 -16 -16 6 -17 5 -3 -12 8 -10 10 -16 4 -12
-7 4 -12 -11 -13 -47 l-1 -54 65 3 c58 2 64 0 53 -13 -10 -12 -6 -11 15 2 17
12 32 15 40 10 17 -13 92 -11 90 2 -1 6 4 11 12 11 8 0 14 -3 13 -6 -2 -24 3
-63 9 -58 3 4 12 -1 20 -11 8 -9 12 -12 9 -5 -4 7 1 9 14 6 11 -3 20 -9 20
-14 0 -5 7 -5 17 -2 12 5 14 3 8 -8 -8 -12 -6 -12 8 0 13 10 17 10 17 1 0 -9
3 -10 14 -1 7 6 22 8 31 4 13 -5 16 -3 10 7 -5 8 -3 11 6 8 23 -8 66 20 73 47
4 17 11 23 19 18 9 -5 9 -4 0 8 -10 12 -9 20 4 39 12 18 13 22 2 16 -8 -4 -5
0 5 8 11 9 14 16 7 16 -7 0 -9 5 -4 12 4 7 9 19 10 26 2 6 5 20 7 30 3 9 5 22
5 27 1 6 6 3 11 -5 8 -12 10 -10 10 10 0 14 8 36 17 49 12 18 13 22 2 16 -11
-6 -12 -5 -1 6 6 7 12 23 12 36 0 13 4 23 9 23 5 0 8 8 6 18 -1 9 7 25 19 35
20 16 20 17 1 10 -20 -6 -20 -6 -1 15 15 18 16 24 6 37 -7 8 -16 12 -22 9 -5
-3 -34 -7 -64 -9 -49 -2 -53 -1 -42 14 11 14 11 14 -3 4 -9 -7 -20 -9 -24 -5
-5 4 -5 1 -1 -5 8 -15 -37 -13 -69 3 -11 6 -32 9 -47 8 -16 -2 -28 1 -28 7 0
5 6 9 13 9 6 0 -1 12 -16 25 -16 14 -33 23 -38 20 -5 -4 -9 -1 -9 5 0 7 -6 10
-14 7 -7 -3 -25 1 -40 8 -15 8 -24 10 -21 5 4 -6 -4 -10 -17 -10 -18 0 -20 2
-8 10 9 6 10 10 3 10 -6 0 -15 -5 -18 -10z m195 -105 c0 -10 -6 -12 -17 -8
-16 6 -17 5 -3 -12 9 -12 10 -16 2 -11 -9 6 -11 1 -8 -19 3 -15 2 -25 -1 -21
-3 3 -13 0 -22 -6 -10 -8 -9 -4 3 10 13 15 15 22 6 22 -10 0 -10 3 0 15 7 8 9
15 4 15 -8 1 25 30 33 30 2 0 3 -7 3 -15z m-50 -115 c0 -5 -2 -10 -4 -10 -3 0
-8 5 -11 10 -3 6 -1 10 4 10 6 0 11 -4 11 -10z m-13 -60 c-2 -23 -10 -17 -12
10 -1 10 2 17 6 14 4 -2 7 -13 6 -24z m-173 12 c2 -4 -4 -8 -14 -8 -10 0 -16
4 -14 8 3 4 9 8 14 8 5 0 11 -4 14 -8z m60 0 c2 -4 -4 -8 -14 -8 -10 0 -16 4
-14 8 3 4 9 8 14 8 5 0 11 -4 14 -8z m54 -15 c14 4 14 3 2 -5 -16 -12 -30 -7
-29 11 0 9 2 9 5 0 3 -7 13 -9 22 -6z m52 -32 c7 -8 16 -13 20 -10 4 3 13 -2
20 -10 10 -12 7 -13 -13 -10 -14 3 -30 -1 -37 -10 -7 -8 -9 -15 -5 -15 4 0 2
-7 -5 -15 -6 -8 -8 -20 -4 -26 5 -8 3 -9 -6 -4 -10 6 -12 4 -7 -9 4 -11 3 -15
-4 -10 -8 4 -9 -1 -4 -15 4 -13 2 -21 -5 -21 -7 0 -9 -8 -5 -20 5 -15 2 -20
-12 -19 -10 0 -13 3 -6 5 7 3 10 11 7 19 -3 7 0 16 5 20 6 3 9 11 5 16 -3 5 4
25 15 44 14 23 16 35 8 36 -9 0 -9 2 1 6 6 2 9 10 6 15 -4 7 -2 8 4 4 18 -11
14 10 -4 28 -13 13 -13 16 -1 16 8 0 20 -7 27 -15z m74 -41 c3 -8 2 -12 -4 -9
-6 3 -10 10 -10 16 0 14 7 11 14 -7z m69 -14 c4 0 5 5 1 12 -5 7 -3 8 5 3 18
-10 -2 -27 -22 -19 -9 3 -17 11 -17 17 0 7 4 7 12 -1 7 -7 16 -12 21 -12z"/>
<path d="M266 103 c-6 -14 -5 -15 5 -6 7 7 10 15 7 18 -3 3 -9 -2 -12 -12z"/>
</g>
</svg>
